<?xml version="1.0" standalone="no"?>
<!DOCTYPE svg PUBLIC "-//W3C//DTD SVG 20010904//EN"
 "http://www.w3.org/TR/2001/REC-SVG-20010904/DTD/svg10.dtd">
<svg version="1.0" xmlns="http://www.w3.org/2000/svg"
 width="200.000000pt" height="200.000000pt" viewBox="0 0 200.000000 200.000000"
 preserveAspectRatio="xMidYMid meet">

<g transform="translate(0.000000,200.000000) scale(0.100000,-0.100000)"
fill="#000000" stroke="none">
<path d="M0 1000 l0 -1000 1000 0 1000 0 0 1000 0 1000 -1000 0 -1000 0 0
-1000z m1250 815 c213 -69 378 -193 494 -372 46 -71 110 -216 104 -234 -3 -8
-407 221 -444 252 -11 9 -14 42 -14 139 0 107 -3 129 -16 134 -9 3 -193 6
-410 6 -235 0 -394 4 -394 9 0 11 135 65 200 80 80 19 93 20 245 16 131 -2
161 -6 235 -30z m-760 -823 c0 -537 3 -711 12 -720 17 -17 859 -17 876 0 8 8
12 60 12 168 l0 155 230 145 c126 80 230 148 230 151 0 4 -11 14 -24 23 -24
15 -29 13 -234 -114 l-210 -130 -208 125 c-115 69 -213 125 -219 125 -17 -1
-49 -29 -41 -37 4 -5 109 -71 234 -149 l227 -140 3 -107 3 -107 -438 2 -438 3
0 615 0 615 438 3 437 2 0 -79 0 -80 -87 -49 c-247 -140 -384 -221 -384 -227
0 -8 462 -295 476 -295 3 0 36 19 73 43 37 24 133 86 214 138 82 52 154 98
162 104 8 5 18 7 21 4 15 -16 27 -136 22 -239 -10 -218 -88 -399 -241 -558
-107 -112 -224 -184 -386 -238 -79 -26 -96 -28 -255 -28 -181 -1 -230 7 -357
58 -191 77 -360 234 -453 421 -157 316 -113 672 119 949 41 49 163 156 178
156 4 0 8 -319 8 -708z m600 688 c0 -6 -57 -10 -150 -10 -93 0 -150 4 -150 10
0 6 57 10 150 10 93 0 150 -4 150 -10z m-116 -1323 c28 -20 18 -69 -16 -81
-22 -8 -32 -6 -48 9 -50 45 9 112 64 72z"/>
<path d="M1597 954 c-109 -68 -202 -124 -208 -124 -6 0 -101 54 -211 120 -109
66 -203 120 -208 120 -19 0 -60 -24 -60 -34 0 -6 10 -16 23 -22 12 -6 114 -68
227 -139 113 -70 210 -129 216 -132 9 -3 244 141 441 271 40 26 41 32 6 50
-27 13 -33 10 -226 -110z"/>
</g>
</svg>
